<mxfile host="app.diagrams.net" modified="2023-04-28T06:31:22.523Z" agent="Mozilla/5.0 (Windows NT 10.0; Win64; x64) AppleWebKit/537.36 (KHTML, like Gecko) Chrome/112.0.0.0 Safari/537.36 Edg/112.0.1722.48" etag="ltejapWfunG1m7Riyf_w" version="21.2.3" type="device">
  <diagram name="1 oldal" id="RmvWvnwJYMETALizYXsQ">
    <mxGraphModel dx="1377" dy="756" grid="1" gridSize="10" guides="1" tooltips="1" connect="1" arrows="1" fold="1" page="1" pageScale="1" pageWidth="1169" pageHeight="827" math="0" shadow="0">
      <root>
        <mxCell id="0" />
        <mxCell id="1" parent="0" />
        <mxCell id="ToRfyEy9vJ_EcrMSde4P-1" value="&lt;b&gt;&lt;font style=&quot;font-size: 14px;&quot;&gt;LLM&lt;br&gt;&lt;/font&gt;&lt;/b&gt;&lt;br&gt;&lt;i&gt;GPT-3.5-turbo currently&lt;/i&gt;" style="rounded=0;whiteSpace=wrap;html=1;fillColor=#dae8fc;strokeColor=#6c8ebf;" parent="1" vertex="1">
          <mxGeometry x="40" y="360" width="120" height="80" as="geometry" />
        </mxCell>
        <mxCell id="ToRfyEy9vJ_EcrMSde4P-2" value="&lt;b style=&quot;font-size: 14px;&quot;&gt;Indexed documents&lt;br&gt;&lt;/b&gt;&lt;br&gt;&lt;i&gt;Well-structured&lt;/i&gt;" style="rounded=0;whiteSpace=wrap;html=1;fillColor=#dae8fc;strokeColor=#6c8ebf;" parent="1" vertex="1">
          <mxGeometry x="200" y="360" width="120" height="80" as="geometry" />
        </mxCell>
        <mxCell id="ToRfyEy9vJ_EcrMSde4P-3" value="&lt;b style=&quot;font-size: 14px;&quot;&gt;Tools&lt;br&gt;&lt;/b&gt;&lt;br&gt;&lt;i&gt;Google Search API,&lt;br&gt;Wikipedia API etc.&lt;/i&gt;" style="rounded=0;whiteSpace=wrap;html=1;fillColor=#dae8fc;strokeColor=#6c8ebf;" parent="1" vertex="1">
          <mxGeometry x="360" y="360" width="120" height="80" as="geometry" />
        </mxCell>
        <mxCell id="ToRfyEy9vJ_EcrMSde4P-5" value="&lt;font style=&quot;font-size: 14px;&quot;&gt;&lt;b&gt;AgentExecutor&lt;/b&gt;&lt;/font&gt;" style="ellipse;whiteSpace=wrap;html=1;fillColor=#d5e8d4;strokeColor=#82b366;" parent="1" vertex="1">
          <mxGeometry x="280" y="180" width="140" height="80" as="geometry" />
        </mxCell>
        <mxCell id="ToRfyEy9vJ_EcrMSde4P-6" value="" style="endArrow=none;html=1;rounded=0;entryX=0;entryY=1;entryDx=0;entryDy=0;exitX=0.5;exitY=0;exitDx=0;exitDy=0;" parent="1" source="ToRfyEy9vJ_EcrMSde4P-1" target="ToRfyEy9vJ_EcrMSde4P-5" edge="1">
          <mxGeometry width="50" height="50" relative="1" as="geometry">
            <mxPoint x="610" y="490" as="sourcePoint" />
            <mxPoint x="660" y="440" as="targetPoint" />
          </mxGeometry>
        </mxCell>
        <mxCell id="ToRfyEy9vJ_EcrMSde4P-7" value="" style="endArrow=none;html=1;rounded=0;entryX=0.307;entryY=0.963;entryDx=0;entryDy=0;exitX=0.5;exitY=0;exitDx=0;exitDy=0;entryPerimeter=0;" parent="1" source="ToRfyEy9vJ_EcrMSde4P-2" target="ToRfyEy9vJ_EcrMSde4P-5" edge="1">
          <mxGeometry width="50" height="50" relative="1" as="geometry">
            <mxPoint x="200" y="370" as="sourcePoint" />
            <mxPoint x="311" y="258" as="targetPoint" />
          </mxGeometry>
        </mxCell>
        <mxCell id="ToRfyEy9vJ_EcrMSde4P-8" value="" style="endArrow=none;html=1;rounded=0;exitX=0.5;exitY=0;exitDx=0;exitDy=0;" parent="1" source="ToRfyEy9vJ_EcrMSde4P-3" target="ToRfyEy9vJ_EcrMSde4P-5" edge="1">
          <mxGeometry width="50" height="50" relative="1" as="geometry">
            <mxPoint x="210" y="380" as="sourcePoint" />
            <mxPoint x="321" y="268" as="targetPoint" />
          </mxGeometry>
        </mxCell>
        <mxCell id="1c9jD-vjKujfzP5gFglJ-1" value="&lt;b style=&quot;font-size: 14px;&quot;&gt;Memory&lt;br&gt;&lt;/b&gt;&lt;br&gt;&lt;i&gt;Conversation Buffer Memory&lt;/i&gt;" style="rounded=0;whiteSpace=wrap;html=1;fillColor=#dae8fc;strokeColor=#6c8ebf;" vertex="1" parent="1">
          <mxGeometry x="520" y="360" width="120" height="80" as="geometry" />
        </mxCell>
        <mxCell id="1c9jD-vjKujfzP5gFglJ-2" value="" style="endArrow=none;html=1;rounded=0;exitX=0.5;exitY=0;exitDx=0;exitDy=0;entryX=1;entryY=1;entryDx=0;entryDy=0;" edge="1" parent="1" source="1c9jD-vjKujfzP5gFglJ-1" target="ToRfyEy9vJ_EcrMSde4P-5">
          <mxGeometry width="50" height="50" relative="1" as="geometry">
            <mxPoint x="430" y="370" as="sourcePoint" />
            <mxPoint x="379" y="268" as="targetPoint" />
          </mxGeometry>
        </mxCell>
      </root>
    </mxGraphModel>
  </diagram>
</mxfile>
